<svg width="540" height="850" viewBox="0 0 540 850" fill="none" xmlns="http://www.w3.org/2000/svg">
<g opacity="0.3" clip-path="url(#clip0)">
<path d="M293.877 392.67V146.569C293.877 138.149 287.05 131.322 278.63 131.322C270.21 131.322 263.384 138.149 263.384 146.569V362.175L236.702 335.493V108.452C236.702 100.032 229.875 93.2053 221.455 93.2053C213.036 93.2053 206.209 100.032 206.209 108.452V305L187.597 286.388C185.081 283.872 182.375 281.618 179.527 279.607V70.3353C179.527 61.9154 172.701 55.0887 164.281 55.0887C155.861 55.0887 149.034 61.9154 149.034 70.3353V268.665C147.479 268.547 145.914 268.471 144.338 268.471C136.696 268.471 129.276 269.88 122.352 272.542V70.3353C122.352 36.6021 94.9084 9.1582 61.1752 9.1582C27.442 9.1582 0 36.6041 0 70.3563C0 70.8347 0.0171525 82.6984 0.0400224 101.923C0.0266816 102.193 0 102.46 0 102.734C0 103.022 0.0266816 103.304 0.0438341 103.588C0.120067 164.897 0.272534 296.982 0.272534 378.96C0.272534 381.576 0.947197 384.149 2.22792 386.431L179.851 702.385V825.602C179.851 834.022 186.678 840.849 195.098 840.849C203.518 840.849 210.345 834.022 210.345 825.602V698.392C210.345 695.775 209.67 693.202 208.389 690.921L30.7658 374.967C30.762 298.8 30.6324 182.636 30.5543 117.981H38.2462C46.6661 117.981 53.4928 111.154 53.4928 102.734C53.4928 94.3145 46.6661 87.4878 38.2462 87.4878H30.5161C30.5028 76.8952 30.4933 70.6746 30.4933 70.3353C30.4933 53.4173 44.2572 39.6515 61.1771 39.6515C78.0971 39.6515 91.861 53.4154 91.861 70.3353V297.169C91.861 297.495 91.8896 297.811 91.9105 298.132C77.7845 321.636 80.8358 352.657 101.083 372.905L242.404 514.226C248.358 520.18 258.011 520.18 263.965 514.226C269.921 508.272 269.921 498.619 263.965 492.665L154.182 382.882L169.487 367.576C175.443 361.622 175.443 351.969 169.487 346.016C163.534 340.06 153.88 340.062 147.927 346.016L132.621 361.321L122.646 351.346C110.683 339.383 110.683 319.917 122.646 307.952C134.609 295.987 154.075 295.989 166.04 307.952L210.669 352.583C210.674 352.589 210.678 352.592 210.684 352.598L267.843 409.758C267.849 409.764 267.853 409.767 267.859 409.773L332.436 474.35C378.757 520.671 378.355 557 376.666 709.892C376.298 743.238 375.881 781.034 375.881 825.602C375.881 834.022 382.708 840.849 391.128 840.849C399.548 840.849 406.374 834.022 406.374 825.602C406.374 781.202 406.79 743.495 407.158 710.229C408.871 555.022 409.387 508.181 353.996 452.788L293.877 392.67Z" fill="#E3E3E3"/>
<path d="M849.974 101.911C849.998 82.6851 850.015 70.8194 850.015 70.3353C850.015 36.6021 822.573 9.1582 788.838 9.1582C755.103 9.1582 727.661 36.6021 727.661 70.3353V272.542C720.737 269.88 713.316 268.471 705.676 268.471C704.1 268.471 702.535 268.549 700.98 268.665V70.3353C700.98 61.9154 694.153 55.0887 685.733 55.0887C677.313 55.0887 670.486 61.9154 670.486 70.3353V279.607C667.639 281.619 664.933 283.872 662.417 286.39L643.805 305.002V108.452C643.805 100.032 636.978 93.2053 628.558 93.2053C620.138 93.2053 613.312 100.032 613.312 108.452V335.493L586.63 362.175V146.569C586.63 138.149 579.803 131.322 571.383 131.322C562.963 131.322 556.137 138.149 556.137 146.569V392.668L496.016 452.79C440.625 508.183 441.141 555.024 442.854 710.231C443.22 743.499 443.638 781.204 443.638 825.604C443.638 834.024 450.464 840.851 458.884 840.851C467.304 840.851 474.131 834.024 474.131 825.604C474.131 781.036 473.714 743.24 473.346 709.894C471.657 557 471.255 520.673 517.578 474.352L683.98 307.952C689.773 302.157 697.479 298.966 705.676 298.966C713.873 298.966 721.578 302.157 727.372 307.952C739.335 319.915 739.335 339.381 727.372 351.346L717.398 361.319L702.095 346.016C696.139 340.062 686.488 340.062 680.532 346.016C674.578 351.969 674.578 361.622 680.532 367.576L695.838 382.882L586.053 492.665C580.099 498.619 580.099 508.272 586.053 514.226C592.008 520.182 601.659 520.182 607.615 514.226L728.18 393.663L728.182 393.661L748.936 372.907C769.182 352.659 772.233 321.64 758.107 298.133C758.126 297.813 758.156 297.495 758.156 297.171V70.3353C758.156 53.4173 771.922 39.6515 788.84 39.6515C805.758 39.6515 819.522 53.4173 819.522 70.3144C819.522 70.6574 819.513 76.8857 819.499 87.4878H811.767C803.347 87.4878 796.521 94.3145 796.521 102.734C796.521 111.154 803.347 117.981 811.767 117.981H819.459C819.379 182.646 819.252 298.802 819.246 374.967L641.623 690.921C640.34 693.202 639.667 695.775 639.667 698.392V825.602C639.667 834.022 646.494 840.849 654.914 840.849C663.334 840.849 670.161 834.022 670.161 825.602V702.385L847.784 386.431C849.066 384.149 849.739 381.576 849.739 378.96C849.739 296.992 849.892 164.927 849.97 103.602C849.987 103.314 850.014 103.028 850.014 102.736C850.015 102.458 849.989 102.186 849.974 101.911Z" fill="#E3E3E3"/>
</g>
<defs>
<clipPath id="clip0">
<rect width="850" height="850" fill="white"/>
</clipPath>
</defs>
</svg>
