<svg width="32" height="32" viewBox="0 0 32 32" fill="none" xmlns="http://www.w3.org/2000/svg">
<circle cx="16" cy="16" r="16" fill="white"/>
<g clip-path="url(#clip0)">
<path d="M23.9836 12.704C23.9461 11.8539 23.8086 11.2694 23.6117 10.763C23.4085 10.2254 23.0959 9.74412 22.6864 9.34401C22.2863 8.93768 21.8019 8.62195 21.2705 8.42196C20.7611 8.22502 20.1797 8.08754 19.3296 8.05006C18.4731 8.0094 18.2012 8 16.0289 8C13.8566 8 13.5847 8.0094 12.7314 8.04688C11.8812 8.08437 11.2968 8.22197 10.7905 8.41878C10.2528 8.62195 9.77146 8.93451 9.37136 9.34401C8.96503 9.74412 8.64941 10.2286 8.4493 10.7599C8.25236 11.2694 8.11489 11.8507 8.0774 12.7009C8.03674 13.5574 8.02734 13.8293 8.02734 16.0016C8.02734 18.1739 8.03674 18.4458 8.07423 19.2991C8.11171 20.1492 8.24931 20.7337 8.44625 21.2401C8.64941 21.7777 8.96503 22.259 9.37136 22.6591C9.77146 23.0654 10.2559 23.3812 10.7873 23.5812C11.2968 23.7781 11.8781 23.9156 12.7283 23.9531C13.5815 23.9907 13.8536 24 16.0258 24C18.1981 24 18.47 23.9907 19.3234 23.9531C20.1735 23.9156 20.758 23.7781 21.2643 23.5812C22.3396 23.1654 23.1897 22.3153 23.6054 21.2401C23.8023 20.7306 23.9399 20.1492 23.9773 19.2991C24.0148 18.4458 24.0242 18.1739 24.0242 16.0016C24.0242 13.8293 24.0211 13.5574 23.9836 12.704ZM22.5427 19.2366C22.5083 20.018 22.3771 20.4399 22.2677 20.7212C21.9988 21.4183 21.4456 21.9715 20.7486 22.2403C20.4673 22.3497 20.0423 22.481 19.2639 22.5153C18.42 22.5529 18.1669 22.5622 16.0321 22.5622C13.8973 22.5622 13.641 22.5529 12.8001 22.5153C12.0187 22.481 11.5968 22.3497 11.3155 22.2403C10.9686 22.1121 10.6529 21.909 10.3966 21.6433C10.1309 21.3838 9.92774 21.0713 9.79954 20.7244C9.69014 20.4431 9.55889 20.018 9.52458 19.2397C9.48698 18.3958 9.4777 18.1426 9.4777 16.0078C9.4777 13.873 9.48698 13.6167 9.52458 12.776C9.55889 11.9946 9.69014 11.5726 9.79954 11.2913C9.92774 10.9443 10.1309 10.6287 10.3998 10.3723C10.6591 10.1066 10.9716 9.90345 11.3186 9.77537C11.5999 9.66597 12.0251 9.53472 12.8033 9.50029C13.6472 9.46281 13.9004 9.45341 16.0351 9.45341C18.1731 9.45341 18.4262 9.46281 19.2671 9.50029C20.0485 9.53472 20.4704 9.66597 20.7517 9.77537C21.0986 9.90345 21.4143 10.1066 21.6706 10.3723C21.9363 10.6317 22.1395 10.9443 22.2677 11.2913C22.3771 11.5726 22.5083 11.9976 22.5427 12.776C22.5802 13.6199 22.5896 13.873 22.5896 16.0078C22.5896 18.1426 22.5802 18.3927 22.5427 19.2366Z" fill="black"/>
<path d="M16.0301 11.8916C13.761 11.8916 11.9199 13.7325 11.9199 16.0018C11.9199 18.271 13.761 20.112 16.0301 20.112C18.2993 20.112 20.1403 18.271 20.1403 16.0018C20.1403 13.7325 18.2993 11.8916 16.0301 11.8916ZM16.0301 18.6679C14.558 18.6679 13.3639 17.474 13.3639 16.0018C13.3639 14.5296 14.558 13.3356 16.0301 13.3356C17.5023 13.3356 18.6963 14.5296 18.6963 16.0018C18.6963 17.474 17.5023 18.6679 16.0301 18.6679Z" fill="black"/>
<path d="M21.263 11.7291C21.263 12.259 20.8333 12.6886 20.3033 12.6886C19.7734 12.6886 19.3438 12.259 19.3438 11.7291C19.3438 11.1991 19.7734 10.7695 20.3033 10.7695C20.8333 10.7695 21.263 11.1991 21.263 11.7291Z" fill="black"/>
<rect x="9" y="9" width="14" height="14" rx="6" fill="black" stroke="black" stroke-width="2"/>
<ellipse cx="20.334" cy="11.667" rx="1" ry="1" fill="white"/>
<circle cx="16" cy="16" r="3" stroke="white" stroke-width="2"/>
</g>
<defs>
<clipPath id="clip0">
<rect width="16" height="16" fill="white" transform="translate(8 8)"/>
</clipPath>
</defs>
</svg>
