<svg width="32" height="32" viewBox="0 0 32 32" fill="none" xmlns="http://www.w3.org/2000/svg">
<circle cx="16" cy="16" r="16" fill="white"/>
<path d="M23.1831 12.2508C23.0103 11.6082 22.5036 11.1016 21.8611 10.9286C20.6873 10.6074 15.992 10.6074 15.992 10.6074C15.992 10.6074 11.2969 10.6074 10.1231 10.9164C9.49295 11.0893 8.97394 11.6083 8.80109 12.2508C8.49219 13.4245 8.49219 15.8586 8.49219 15.8586C8.49219 15.8586 8.49219 18.305 8.80109 19.4664C8.97412 20.1089 9.48059 20.6155 10.1232 20.7885C11.3093 21.1098 15.9922 21.1098 15.9922 21.1098C15.9922 21.1098 20.6873 21.1098 21.8611 20.8008C22.5037 20.6279 23.0103 20.1213 23.1833 19.4788C23.4921 18.305 23.4921 15.871 23.4921 15.871C23.4921 15.871 23.5045 13.4245 23.1831 12.2508ZM14.4971 18.1073V13.6099L18.4015 15.8586L14.4971 18.1073Z" fill="black"/>
</svg>
